<?xml version="1.0" standalone="no"?>
<!DOCTYPE svg PUBLIC "-//W3C//DTD SVG 20010904//EN"
 "http://www.w3.org/TR/2001/REC-SVG-20010904/DTD/svg10.dtd">
<svg version="1.0" xmlns="http://www.w3.org/2000/svg"
 width="512.000000pt" height="512.000000pt" viewBox="0 0 512.000000 512.000000"
 preserveAspectRatio="xMidYMid meet">
<metadata>
Created by potrace 1.14, written by Peter Selinger 2001-2017
</metadata>
<g transform="translate(0.000000,512.000000) scale(0.100000,-0.100000)"
fill="#000000" stroke="none">
<path d="M2054 5060 c-178 -27 -353 -148 -434 -300 -21 -41 -61 -159 -106
-315 -39 -137 -70 -251 -69 -253 1 -1 40 21 86 49 207 129 459 222 729 271
101 18 499 18 600 0 105 -19 253 -56 346 -88 107 -36 305 -131 394 -188 40
-26 73 -46 75 -44 1 2 -30 116 -69 253 -45 156 -85 274 -106 315 -47 87 -147
186 -235 232 -142 74 -125 72 -670 74 -269 1 -513 -1 -541 -6z"/>
<path d="M2335 4304 c-407 -55 -760 -234 -1046 -531 -513 -533 -635 -1336
-303 -1996 89 -177 170 -291 309 -436 672 -699 1782 -722 2478 -52 309 297
492 671 537 1093 68 647 -242 1295 -790 1651 -353 229 -779 326 -1185 271z
m313 -971 c14 -10 35 -32 46 -47 20 -26 21 -42 24 -344 l3 -317 99 -100 c56
-58 102 -113 105 -128 11 -43 0 -112 -23 -145 -41 -56 -139 -80 -200 -48 -40
22 -279 267 -292 299 -14 39 -14 716 1 754 14 37 47 72 84 89 40 19 119 12
153 -13z"/>
<path d="M1451 898 c5 -18 37 -130 70 -248 37 -132 75 -242 97 -285 69 -133
207 -243 367 -292 55 -16 103 -18 575 -18 472 0 520 2 575 18 156 48 296 158
365 287 30 57 184 558 174 568 -1 2 -23 -10 -47 -27 -165 -113 -448 -228 -677
-275 -202 -41 -533 -47 -718 -12 -260 48 -497 138 -705 267 -43 27 -80 49 -82
49 -2 0 1 -15 6 -32z"/>
</g>
</svg>
